<svg width="133" height="48" viewBox="0 0 133 48" fill="none" xmlns="http://www.w3.org/2000/svg">
<rect width="48" height="48" rx="3" fill="#FF2626"/>
<path d="M24.1211 14.5938C24.1523 14.7774 24.75 18.2852 24.75 19.625C24.75 21.668 23.664 23.125 22.0586 23.711L22.5625 33.0117C22.5898 33.5469 22.164 34 21.625 34H19.125C18.5898 34 18.1602 33.5508 18.1875 33.0117L18.6914 23.711C17.082 23.125 16 21.6641 16 19.625C16 18.2813 16.5977 14.7774 16.6289 14.5938C16.7539 13.8008 18.3984 13.7891 18.5 14.6368V20.1524C18.5508 20.2852 19.0898 20.2774 19.125 20.1524C19.1797 19.1641 19.4336 14.7149 19.4375 14.6133C19.5664 13.8008 21.1836 13.8008 21.3086 14.6133C21.3164 14.7188 21.5664 19.1641 21.6211 20.1524C21.6562 20.2774 22.1992 20.2852 22.2461 20.1524V14.6368C22.3476 13.793 23.9961 13.8008 24.1211 14.5938ZM28.7773 25.7539L28.1914 32.9844C28.1445 33.5313 28.5781 34 29.125 34H31.3125C31.832 34 32.25 33.582 32.25 33.0625V14.9376C32.25 14.4219 31.832 14.0001 31.3125 14.0001C28.0898 14.0001 22.664 20.9727 28.7773 25.7539Z" fill="white"/>
<path d="M72.0703 18.832V20.64H67.4143V23.504H70.9823V25.28H67.4143V30H65.1743V18.832H72.0703ZM77.5947 30.144C76.7414 30.144 75.9734 29.9573 75.2907 29.584C74.608 29.2 74.0694 28.6613 73.6747 27.968C73.2907 27.2747 73.0987 26.4747 73.0987 25.568C73.0987 24.6613 73.296 23.8613 73.6907 23.168C74.096 22.4747 74.6454 21.9413 75.3387 21.568C76.032 21.184 76.8054 20.992 77.6587 20.992C78.512 20.992 79.2854 21.184 79.9787 21.568C80.672 21.9413 81.216 22.4747 81.6107 23.168C82.016 23.8613 82.2187 24.6613 82.2187 25.568C82.2187 26.4747 82.0107 27.2747 81.5947 27.968C81.1894 28.6613 80.6347 29.2 79.9307 29.584C79.2374 29.9573 78.4587 30.144 77.5947 30.144ZM77.5947 28.192C78 28.192 78.3787 28.096 78.7307 27.904C79.0934 27.7013 79.3814 27.4027 79.5947 27.008C79.808 26.6133 79.9147 26.1333 79.9147 25.568C79.9147 24.7253 79.6907 24.08 79.2427 23.632C78.8054 23.1733 78.2667 22.944 77.6267 22.944C76.9867 22.944 76.448 23.1733 76.0107 23.632C75.584 24.08 75.3707 24.7253 75.3707 25.568C75.3707 26.4107 75.5787 27.0613 75.9947 27.52C76.4214 27.968 76.9547 28.192 77.5947 28.192ZM87.7978 30.144C86.9445 30.144 86.1765 29.9573 85.4938 29.584C84.8111 29.2 84.2725 28.6613 83.8778 27.968C83.4938 27.2747 83.3018 26.4747 83.3018 25.568C83.3018 24.6613 83.4991 23.8613 83.8938 23.168C84.2991 22.4747 84.8485 21.9413 85.5418 21.568C86.2351 21.184 87.0085 20.992 87.8618 20.992C88.7151 20.992 89.4885 21.184 90.1818 21.568C90.8751 21.9413 91.4191 22.4747 91.8138 23.168C92.2191 23.8613 92.4218 24.6613 92.4218 25.568C92.4218 26.4747 92.2138 27.2747 91.7978 27.968C91.3925 28.6613 90.8378 29.2 90.1338 29.584C89.4405 29.9573 88.6618 30.144 87.7978 30.144ZM87.7978 28.192C88.2031 28.192 88.5818 28.096 88.9338 27.904C89.2965 27.7013 89.5845 27.4027 89.7978 27.008C90.0111 26.6133 90.1178 26.1333 90.1178 25.568C90.1178 24.7253 89.8938 24.08 89.4458 23.632C89.0085 23.1733 88.4698 22.944 87.8298 22.944C87.1898 22.944 86.6511 23.1733 86.2138 23.632C85.7871 24.08 85.5738 24.7253 85.5738 25.568C85.5738 26.4107 85.7818 27.0613 86.1978 27.52C86.6245 27.968 87.1578 28.192 87.7978 28.192ZM93.4889 25.536C93.4889 24.64 93.6649 23.8453 94.0169 23.152C94.3796 22.4587 94.8703 21.9253 95.4889 21.552C96.1076 21.1787 96.7956 20.992 97.5529 20.992C98.1289 20.992 98.6783 21.12 99.2009 21.376C99.7236 21.6213 100.14 21.952 100.449 22.368V18.16H102.721V30H100.449V28.688C100.172 29.1253 99.7823 29.4773 99.2809 29.744C98.7796 30.0107 98.1983 30.144 97.5369 30.144C96.7903 30.144 96.1076 29.952 95.4889 29.568C94.8703 29.184 94.3796 28.6453 94.0169 27.952C93.6649 27.248 93.4889 26.4427 93.4889 25.536ZM100.465 25.568C100.465 25.024 100.358 24.56 100.145 24.176C99.9316 23.7813 99.6436 23.4827 99.2809 23.28C98.9183 23.0667 98.5289 22.96 98.1129 22.96C97.6969 22.96 97.3129 23.0613 96.9609 23.264C96.6089 23.4667 96.3209 23.7653 96.0969 24.16C95.8836 24.544 95.7769 25.0027 95.7769 25.536C95.7769 26.0693 95.8836 26.5387 96.0969 26.944C96.3209 27.3387 96.6089 27.6427 96.9609 27.856C97.3236 28.0693 97.7076 28.176 98.1129 28.176C98.5289 28.176 98.9183 28.0747 99.2809 27.872C99.6436 27.6587 99.9316 27.36 100.145 26.976C100.358 26.5813 100.465 26.112 100.465 25.568Z" fill="black"/>
<path d="M111.245 24.272C111.874 24.3893 112.391 24.704 112.797 25.216C113.202 25.728 113.405 26.3147 113.405 26.976C113.405 27.5733 113.255 28.1013 112.957 28.56C112.669 29.008 112.247 29.36 111.693 29.616C111.138 29.872 110.482 30 109.725 30H104.909V18.832H109.517C110.274 18.832 110.925 18.9547 111.469 19.2C112.023 19.4453 112.439 19.7867 112.717 20.224C113.005 20.6613 113.149 21.1573 113.149 21.712C113.149 22.3627 112.973 22.9067 112.621 23.344C112.279 23.7813 111.821 24.0907 111.245 24.272ZM107.149 23.44H109.197C109.73 23.44 110.141 23.3227 110.429 23.088C110.717 22.8427 110.861 22.496 110.861 22.048C110.861 21.6 110.717 21.2533 110.429 21.008C110.141 20.7627 109.73 20.64 109.197 20.64H107.149V23.44ZM109.405 28.176C109.949 28.176 110.37 28.048 110.669 27.792C110.978 27.536 111.133 27.1733 111.133 26.704C111.133 26.224 110.973 25.8507 110.653 25.584C110.333 25.3067 109.901 25.168 109.357 25.168H107.149V28.176H109.405ZM119.126 30.144C118.273 30.144 117.505 29.9573 116.822 29.584C116.139 29.2 115.601 28.6613 115.206 27.968C114.822 27.2747 114.63 26.4747 114.63 25.568C114.63 24.6613 114.827 23.8613 115.222 23.168C115.627 22.4747 116.177 21.9413 116.87 21.568C117.563 21.184 118.337 20.992 119.19 20.992C120.043 20.992 120.817 21.184 121.51 21.568C122.203 21.9413 122.747 22.4747 123.142 23.168C123.547 23.8613 123.75 24.6613 123.75 25.568C123.75 26.4747 123.542 27.2747 123.126 27.968C122.721 28.6613 122.166 29.2 121.462 29.584C120.769 29.9573 119.99 30.144 119.126 30.144ZM119.126 28.192C119.531 28.192 119.91 28.096 120.262 27.904C120.625 27.7013 120.913 27.4027 121.126 27.008C121.339 26.6133 121.446 26.1333 121.446 25.568C121.446 24.7253 121.222 24.08 120.774 23.632C120.337 23.1733 119.798 22.944 119.158 22.944C118.518 22.944 117.979 23.1733 117.542 23.632C117.115 24.08 116.902 24.7253 116.902 25.568C116.902 26.4107 117.11 27.0613 117.526 27.52C117.953 27.968 118.486 28.192 119.126 28.192ZM130.289 30L128.465 27.248L126.849 30H124.449L127.345 25.552L124.417 21.136H126.945L128.753 23.872L130.385 21.136H132.785L129.873 25.552L132.817 30H130.289Z" fill="#FF2626"/>
</svg>
